# xmcd CD database file
#
# Track frame offsets:
#	187
#	17815
#	34922
#	53657
#	73557
#	93420
#	114160
#	131602
#	152657
#	173000
#
# Disc length: 2565 seconds
#
# Revision: 0
# Processed by: cddbd v1.5.1PL0 Copyright (c) Steve Scherf et al.
# Submitted via: CDex 1.51
#
DISCID=770a030a
DTITLE=来生　たかお - ウィズ・タイム
DYEAR=1995
DGENRE=JPop
TTITLE0=語りつぐ愛に
TTITLE1=たそがれに涙して
TTITLE2=甘い偶然
TTITLE3=青いノーヴェンバー
TTITLE4=想いの破片
TTITLE5=サイレント・メモリー
TTITLE6=水の消息
TTITLE7=オン・ザ・ライン
TTITLE8=遠い駅
TTITLE9=メイド・イン・Ｘ’ｍａｓ
EXTD=YEAR: 1995-07-21
EXTT0=
EXTT1=
EXTT2=
EXTT3=
EXTT4=
EXTT5=
EXTT6=
EXTT7=
EXTT8=
EXTT9=
PLAYORDER=
